<?xml version="1.0" encoding="utf-8"?>
<!-- Generator: Adobe Illustrator 15.0.0, SVG Export Plug-In . SVG Version: 6.00 Build 0)  -->
<!DOCTYPE svg PUBLIC "-//W3C//DTD SVG 1.1//EN" "http://www.w3.org/Graphics/SVG/1.1/DTD/svg11.dtd">
<svg version="1.1" id="РЎР»РѕР№_1" xmlns="http://www.w3.org/2000/svg" xmlns:xlink="http://www.w3.org/1999/xlink" x="0px" y="0px"
	 width="500px" height="500px" viewBox="0 0 500 500" enable-background="new 0 0 500 500" xml:space="preserve">
<g>
	<g>
		<path fill="#FFFFFF" d="M251.442,104.018c21.384,0.237,39.074-31.654,39.312-53.037c0.237-21.384-16.904-38.91-38.287-39.149
			c-21.383-0.238-38.911,16.905-39.148,38.288C213.081,71.502,230.058,103.779,251.442,104.018z"/>
		<path fill="#FFFFFF" d="M58.753,181.51c18.4,10.896,54.841,12.332,65.739-6.068c10.897-18.399-7.875-49.666-26.275-60.563
			c-18.4-10.897-42.149-4.817-53.048,13.583C34.272,146.862,40.354,170.612,58.753,181.51z"/>
		<path fill="#FFFFFF" d="M122.874,321.096c-10.486-18.637-46.95-18.012-65.588-7.526c-18.638,10.486-25.245,34.094-14.76,52.732
			c10.486,18.637,34.096,25.245,52.733,14.76C113.896,370.574,133.359,339.733,122.874,321.096z"/>
		<path fill="#FFFFFF" d="M248.204,395.326c-21.383-0.238-39.074,31.652-39.313,53.038c-0.237,21.383,16.904,38.91,38.288,39.146
			c21.384,0.239,38.912-16.903,39.149-38.286S269.586,395.563,248.204,395.326z"/>
		<path fill="#FFFFFF" d="M418.833,253.769c-4.287-0.739-8.873-1.536-13.645-2.37c4.789-0.729,9.391-1.423,13.694-2.066
			c30.734-4.598,71.458-2.426,68.804-28.122c-2.561-24.755-98.647,10.06-130.197-32.114
			c-19.668-48.858,59.969-112.914,40.139-127.952c-20.582-15.608-39.866,20.327-59.751,44.208
			c-2.785,3.344-5.768,6.917-8.875,10.631c1.764-4.511,3.462-8.844,5.057-12.892c11.385-28.915,33.628-63.098,10.048-73.646
			c-22.718-10.162-40.611,90.46-92.911,96.696c-52.146-7.396-67.801-108.392-90.739-98.737c-23.809,10.021-2.33,44.689,8.41,73.851
			c1.504,4.083,3.106,8.452,4.77,13.002c-3.025-3.784-5.928-7.421-8.637-10.826c-19.349-24.317-37.83-60.672-58.755-45.524
			c-20.159,14.593,58.035,80.4,37.286,128.811c-32.479,41.462-127.771,4.522-130.879,29.214
			c-3.226,25.63,37.538,24.363,68.162,29.642c4.287,0.74,8.872,1.538,13.644,2.371c-4.789,0.729-9.391,1.424-13.693,2.066
			c-30.734,4.599-71.459,2.427-68.804,28.122c2.559,24.756,98.646-10.059,130.197,32.115c19.667,48.859-59.97,112.913-40.14,127.952
			c20.584,15.607,39.867-20.327,59.752-44.21c2.784-3.343,5.767-6.915,8.875-10.632c-1.764,4.513-3.463,8.846-5.057,12.893
			c-11.385,28.919-33.629,63.1-10.048,73.648c22.717,10.16,40.611-90.461,92.911-96.697c52.146,7.396,67.801,108.391,90.739,98.736
			c23.809-10.021,2.329-44.688-8.41-73.849c-1.503-4.086-3.106-8.453-4.77-13.003c3.025,3.783,5.928,7.422,8.637,10.826
			c19.35,24.317,37.831,60.672,58.755,45.525c20.159-14.593-58.034-80.402-37.285-128.813
			c32.479-41.462,127.77-4.521,130.878-29.213C490.22,257.782,449.456,259.049,418.833,253.769z M249.822,249.671L249.822,249.671
			L249.822,249.671L249.822,249.671C249.823,249.671,249.823,249.671,249.822,249.671L249.822,249.671
			C249.822,249.671,249.822,249.671,249.822,249.671z"/>
		<path fill="#FFFFFF" d="M440.892,317.833c-18.4-10.896-54.841-12.332-65.738,6.067c-10.897,18.4,7.876,49.667,26.274,60.563
			c18.4,10.897,42.149,4.816,53.048-13.583C465.374,352.48,459.291,328.73,440.892,317.833z"/>
		<path fill="#FFFFFF" d="M376.773,178.247c10.485,18.638,46.949,18.013,65.586,7.527c18.638-10.486,25.245-34.094,14.761-52.732
			c-10.485-18.638-34.095-25.246-52.733-14.76C385.75,128.767,366.287,159.609,376.773,178.247z"/>
	</g>
	<g>
		<g>
			<path fill="#FFD400" d="M344.106,29.446c-22.718-10.162-40.611,90.46-92.911,96.696c-52.146-7.396-67.801-108.392-90.739-98.737
				c-23.809,10.021-2.33,44.689,8.41,73.851c14.319,38.883,37.571,103.679,37.571,103.679s13.516,44.405,43.385,44.737
				c29.873,0.332,44.371-43.762,44.371-43.762s24.686-64.264,39.865-102.818C345.443,74.176,367.687,39.994,344.106,29.446z"/>
			<path fill="#FFD400" d="M290.754,50.98c-0.237,21.383-17.928,53.274-39.312,53.037c-21.384-0.239-38.361-32.515-38.124-53.898
				c0.237-21.383,17.765-38.525,39.148-38.288C273.85,12.071,290.991,29.596,290.754,50.98z"/>
		</g>
	</g>
	<g>
		<g>
			<path fill="#F19300" d="M106.244,57.907c-20.159,14.593,58.035,80.4,37.286,128.811c-32.479,41.462-127.771,4.522-130.879,29.214
				c-3.226,25.63,37.538,24.363,68.162,29.642c40.833,7.041,108.574,19.303,108.574,19.303s45.214,10.498,60.436-15.205
				c15.225-25.704-15.712-60.306-15.712-60.306s-43.312-53.511-69.111-85.934C145.65,79.114,127.168,42.759,106.244,57.907z"/>
			<path fill="#F19300" d="M98.217,114.878c18.4,10.898,37.172,42.164,26.275,60.563c-10.897,18.4-47.339,16.964-65.739,6.068
				c-18.399-10.897-24.481-34.648-13.584-53.048C56.068,110.062,79.817,103.981,98.217,114.878z"/>
		</g>
	</g>
	<g>
		<g>
			<path fill="#E1001A" d="M11.96,278.132c2.559,24.756,98.646-10.059,130.197,32.115c19.667,48.859-59.97,112.913-40.14,127.952
				c20.584,15.607,39.867-20.327,59.752-44.21c26.514-31.842,71.003-84.376,71.003-84.376s31.699-33.908,17.05-59.942
				c-14.648-26.036-60.083-16.545-60.083-16.545S121.742,243.88,80.764,250.01C50.029,254.609,9.304,252.438,11.96,278.132z"/>
			<path fill="#E1001A" d="M57.286,313.569c18.638-10.485,55.102-11.11,65.588,7.526c10.485,18.638-8.978,49.479-27.615,59.966
				c-18.638,10.485-42.247,3.877-52.733-14.76C32.041,347.663,38.648,324.056,57.286,313.569z"/>
		</g>
	</g>
	<g>
		<g>
			<path fill="#0A71B3" d="M155.54,469.898c22.717,10.16,40.611-90.461,92.911-96.697c52.146,7.396,67.801,108.391,90.739,98.736
				c23.809-10.021,2.329-44.688-8.41-73.849c-14.319-38.885-37.571-103.681-37.571-103.681s-13.514-44.406-43.386-44.737
				c-29.871-0.333-44.37,43.761-44.37,43.761s-24.686,64.264-39.865,102.817C154.203,425.169,131.958,459.35,155.54,469.898z"/>
			<path fill="#0A71B3" d="M208.891,448.364c0.238-21.386,17.929-53.276,39.313-53.038c21.382,0.236,38.362,32.515,38.125,53.897
				s-17.766,38.525-39.149,38.286C225.795,487.274,208.654,469.747,208.891,448.364z"/>
		</g>
	</g>
	<g>
		<g>
			<path fill="#37A8DB" d="M393.401,441.438c20.159-14.593-58.034-80.402-37.285-128.813c32.479-41.462,127.77-4.521,130.878-29.213
				c3.226-25.63-37.538-24.363-68.161-29.644c-40.833-7.04-108.574-19.302-108.574-19.302s-45.214-10.498-60.437,15.205
				c-15.223,25.704,15.714,60.307,15.714,60.307s43.312,53.51,69.11,85.934C353.996,420.229,372.478,456.584,393.401,441.438z"/>
			<path fill="#37A8DB" d="M401.428,384.464c-18.398-10.896-37.172-42.163-26.274-60.563c10.897-18.399,47.338-16.964,65.738-6.067
				c18.399,10.897,24.482,34.647,13.584,53.048C443.577,389.28,419.828,395.361,401.428,384.464z"/>
		</g>
	</g>
	<g>
		<g>
			<path fill="#00632E" d="M487.687,221.21c-2.561-24.755-98.647,10.06-130.197-32.114
				c-19.668-48.858,59.969-112.914,40.139-127.952c-20.582-15.608-39.866,20.327-59.751,44.208
				c-26.514,31.843-71.004,84.377-71.004,84.377s-31.698,33.908-17.05,59.942c14.647,26.036,60.084,16.544,60.084,16.544
				s67.996-10.753,108.976-16.884C449.617,244.734,490.341,246.906,487.687,221.21z"/>
			<path fill="#00632E" d="M442.359,185.773c-18.637,10.486-55.101,11.111-65.586-7.527c-10.486-18.638,8.977-49.479,27.613-59.965
				c18.639-10.486,42.248-3.878,52.733,14.76C467.604,151.679,460.997,175.287,442.359,185.773z"/>
		</g>
	</g>
</g>
</svg>
